# xmcd
#
# Track frame offsets: 
#        150
#        19768
#        36970
#        61819
#        84502
#        101724
#        119779
#        140673
#        161972
#        183419
#
# Disc length: 2698 seconds
#
# Revision: 1
# Processed by: cddbd v1.5.2PL0 Copyright (c) Steve Scherf et al.
# Submitted via: ExactAudioCopy v0.99pb5
#
DISCID=8e0a880a
DTITLE=Visionary666 - Into Abeyance
DYEAR=2015
DGENRE=Death Metal
TTITLE0=Abeyance
TTITLE1=I Shall Not Rest
TTITLE2=Forced Religion
TTITLE3=When Gods Cease To Exist
TTITLE4=Kataklismic Disaster
TTITLE5=Rihada
TTITLE6=Rise To Destroy
TTITLE7=It's Better To Suffer
TTITLE8=God Of All Weeds
TTITLE9=This Life Ends Here
EXTD=YEAR: 2015
EXTT0=
EXTT1=
EXTT2=
EXTT3=
EXTT4=
EXTT5=
EXTT6=
EXTT7=
EXTT8=
EXTT9=
PLAYORDER=
